PathFileType	4	(X/Y/Z)	D:\TRACE\spot_10-12-23\spot_arm_body_motion_1_8-platform.trc
DataRate	CameraRate	NumFrames	NumMarkers	Units	OrigDataRate	OrigDataStartFrame	OrigNumFrames
100.00	100.00	      67	5	mm	100.00	1	      7000
Frame#	Time	Left_Front			Right_Front			Left_Aft			Right_Aft			Post			
		X1	Y1	Z1	X2	Y2	Z2	X3	Y3	Z3	X4	Y4	Z4	X5	Y5	Z5	

1	0.000	-804.96783	-19.85137	-658.83118	762.36676	-21.75273	-634.17511	-736.27222	33.12388	478.53110	670.42719	35.01221	580.43079	-16.55222	692.82092	-1002.48663	
2	0.010	-805.14319	-19.74719	-658.70416	762.35852	-21.75389	-634.16803	-736.28638	33.14405	478.51727	670.42645	35.16107	580.79877	-16.56551	692.78888	-1002.47314	
3	0.020	-805.09088	-19.76685	-658.74615	762.34778	-21.76508	-634.18591	-736.28375	33.12163	478.51624	670.42084	35.02027	580.41626	-16.54064	692.83423	-1002.53479	
4	0.030	-805.11261	-19.77024	-658.72125	762.37512	-21.74945	-634.15851	-736.28894	33.17081	478.52835	670.45117	35.04492	580.41370	-16.54205	692.88501	-1002.50220	
5	0.040	-805.10443	-19.74246	-658.73267	762.38611	-21.74146	-634.19354	-736.25348	33.13063	478.51895	670.38287	34.84337	580.50452	-16.52431	692.86066	-1002.50189	
6	0.050	-805.10889	-19.75568	-658.73303	762.37067	-21.75695	-634.15857	-736.29633	33.14370	478.53543	670.32544	34.82071	580.50574	-16.56001	692.89099	-1002.50415	
7	0.060	-805.13257	-19.75177	-658.71533	762.34839	-21.74865	-634.17963	-736.29132	33.13735	478.53412	670.38300	35.01065	580.40143	-16.52437	692.87006	-1002.43256	
8	0.070	-805.15729	-19.71759	-658.68890	762.17920	-21.96632	-634.17523	-736.30243	33.16498	478.53665	670.39655	34.98528	580.40216	-16.56365	692.86249	-1002.50873	
9	0.080	-805.11603	-19.73213	-658.70551	762.35663	-21.73826	-634.16998	-736.27570	33.15105	478.53314	670.34039	34.84125	580.51202	-16.55963	692.87280	-1002.47607	
10	0.090	-805.12653	-19.74049	-658.72876	762.34766	-21.73770	-634.19055	-736.28827	33.12820	478.50562	670.43170	35.02492	580.40662	-16.54037	692.91650	-1002.51459	
11	0.100	-805.08966	-19.75333	-658.73749	762.35706	-21.75089	-634.17377	-736.26715	33.15247	478.51874	670.40472	34.85361	580.51569	-16.56545	692.89307	-1002.50677	
12	0.110	-805.11835	-19.74596	-658.69604	762.35254	-21.76240	-634.16492	-736.28015	33.13398	478.54507	670.34589	34.99740	580.41870	-16.57437	692.85284	-1002.51355	
13	0.120	-805.14532	-19.76799	-658.68982	762.35803	-21.76511	-634.18945	-736.29291	33.15018	478.52896	670.40833	34.99898	580.42010	-16.51349	692.83740	-1002.54572	
14	0.130	-805.16833	-19.72433	-658.66974	762.34753	-21.76140	-634.18164	-736.29559	33.14688	478.53217	670.36865	34.99215	580.42566	-16.52334	692.79071	-1002.47113	
15	0.140	-805.09741	-19.75627	-658.72559	762.37463	-21.73613	-634.16229	-736.25653	33.17771	478.54449	670.41248	35.01488	580.41937	-16.57851	692.81610	-1002.49548	
16	0.150	-805.09210	-19.74787	-658.72260	762.37347	-21.75714	-634.17084	-736.28729	33.15736	478.49979	670.35504	34.79949	580.51312	-16.53210	692.88702	-1002.53839	
17	0.160	-805.13330	-19.73441	-658.69965	762.36810	-21.73211	-634.16608	-736.30963	33.14276	478.52496	670.37109	34.82036	580.55103	-16.52272	692.86603	-1002.53217	
18	0.170	-805.13812	-19.71731	-658.72235	762.36047	-21.75091	-634.16071	-736.27063	33.13354	478.51865	670.38007	35.00681	580.39874	-16.51409	692.84882	-1002.51434	
19	0.180	-805.10266	-19.75178	-658.72559	762.33698	-21.75580	-634.20135	-736.30261	33.15975	478.52521	670.42816	35.02349	580.44318	-16.53425	692.88293	-1002.49017	
20	0.190	-805.14771	-19.70538	-658.68268	762.34308	-21.74680	-634.17462	-736.28363	33.19607	478.50513	670.41748	35.04534	580.44672	-16.52781	692.81439	-1002.44293	
21	0.200	-805.06793	-19.70468	-658.71118	762.35742	-21.70271	-634.16248	-736.28217	33.18624	478.50598	670.26453	34.81370	580.52081	-16.52072	692.86334	-1002.44946	
22	0.210	-805.05414	-19.66955	-658.68408	762.22040	-21.90597	-634.16345	-736.26599	33.15802	478.52783	670.40656	34.97302	580.38068	-16.54408	692.86487	-1002.42523	
23	0.220	-805.08612	-19.69493	-658.67847	762.19653	-21.93702	-634.17126	-736.26801	33.13143	478.55756	670.35480	34.81753	580.52197	-16.55831	692.96820	-1002.46790	
24	0.230	-805.02948	-19.85687	-658.82263	762.21777	-21.95864	-634.18182	-736.28748	33.10761	478.53903	670.42944	34.99564	580.40009	-16.53943	692.94891	-1002.43640	
25	0.240	-805.12225	-19.74319	-658.69824	762.34906	-21.71144	-634.19183	-736.30206	33.10814	478.52347	670.36829	34.82251	580.51941	-16.59516	692.87622	-1002.42908	
26	0.250	-805.09381	-19.74279	-658.70068	762.37042	-21.73913	-634.19098	-736.30396	33.13202	478.51288	670.42926	35.01781	580.38672	-16.49401	692.84943	-1002.40576	
27	0.260	-805.06525	-19.73086	-658.74146	762.35773	-21.77119	-634.17212	-736.24933	33.18375	478.54980	670.32941	34.84383	580.52698	-16.50676	692.85480	-1002.36487	
28	0.270	-805.14160	-19.73420	-658.72443	762.35535	-21.73483	-634.18274	-736.23511	33.21812	478.52795	670.43665	35.01157	580.38141	-16.52451	692.83673	-1002.47113	
29	0.280	-805.20483	-19.73133	-658.69995	762.17603	-21.95474	-634.20221	-736.31018	33.15328	478.52573	670.36700	35.01470	580.42090	-16.56222	692.81909	-1002.48254	
30	0.290	-805.14862	-19.74820	-658.71906	762.35345	-21.77966	-634.18445	-736.30774	33.12184	478.53140	670.72253	34.63681	579.99451	-16.51520	692.85071	-1002.51984	
31	0.300	-805.14429	-19.73695	-658.69189	762.33594	-21.79302	-634.19745	-736.33942	33.10246	478.52969	670.52246	34.86266	580.12683	-16.57293	692.86603	-1002.55676	
32	0.310	-805.11292	-19.72745	-658.70007	762.22241	-21.94356	-634.17981	-736.28033	33.11084	478.53848	670.41266	34.84499	580.23553	-16.51735	692.87299	-1002.60236	
33	0.320	-805.03528	-19.74506	-658.71545	762.24097	-21.90002	-634.18756	-736.26251	33.16273	478.54581	670.48767	34.86229	580.47754	-16.51283	692.91992	-1002.58313	
34	0.330	-805.11023	-19.74508	-658.73260	762.19794	-21.93181	-634.20978	-736.26843	33.14752	478.53937	670.45935	34.98426	580.35724	-16.55379	692.85785	-1002.57800	
35	0.340	-805.15253	-19.77200	-658.72650	762.32465	-21.78108	-634.18378	-736.29199	33.15583	478.52982	670.41840	34.97902	580.16705	-16.56613	692.81598	-1002.52563	
36	0.350	-805.14398	-19.79045	-658.70227	762.32904	-21.80669	-634.19238	-736.32709	33.11655	478.50473	670.52191	34.87339	580.45636	-16.53046	692.78900	-1002.55884	
37	0.360	-805.15576	-19.80462	-658.71851	762.34155	-21.77121	-634.18701	-736.30005	33.11610	478.52924	670.58990	34.94190	580.48688	-16.54364	692.81616	-1002.52527	
38	0.370	-805.05475	-19.73725	-658.69775	762.38342	-21.74245	-634.16479	-736.22571	33.16586	478.51819	670.44946	35.01439	580.35278	-16.50793	692.83411	-1002.48804	
39	0.380	-805.04254	-19.73538	-658.76440	762.36932	-21.73493	-634.19904	-736.24902	33.18323	478.52209	670.51141	34.91515	580.45355	-16.50990	692.85992	-1002.47534	
40	0.390	-805.11957	-19.76955	-658.72388	762.35364	-21.73759	-634.18005	-736.28027	33.14763	478.52258	670.42999	34.87712	580.46063	-16.54987	692.81598	-1002.43054	
41	0.400	-805.19696	-19.76102	-658.70801	762.34186	-21.77340	-634.19873	-736.32495	33.08613	478.51920	670.42194	34.99815	580.35199	-16.57211	692.84863	-1002.45776	
42	0.410	-805.13751	-19.79786	-658.70398	762.36041	-21.78763	-634.17096	-736.28949	33.12146	478.53696	670.44855	35.01175	580.39874	-16.75052	692.93243	-1002.61285	
43	0.420	-805.05518	-19.74127	-658.71265	762.38153	-21.72522	-634.18622	-736.29608	33.13362	478.52307	670.53021	34.90319	580.48334	-16.50846	692.89581	-1002.49908	
44	0.430	-805.07727	-19.69701	-658.69690	762.21112	-21.94256	-634.20129	-736.24231	33.17159	478.53406	670.56244	34.95297	580.49390	-16.52619	692.88123	-1002.53387	
45	0.440	-805.12158	-19.71622	-658.71118	762.35590	-21.73511	-634.18396	-736.30078	33.18677	478.53165	670.45795	34.85959	580.44562	-16.51371	692.87128	-1002.52637	
46	0.450	-805.17279	-19.78412	-658.70258	762.33411	-21.77656	-634.19189	-736.29694	33.15421	478.51541	670.48553	34.90007	580.45490	-16.55505	692.82043	-1002.56097	
47	0.460	-805.16730	-19.77945	-658.68585	762.34424	-21.80914	-634.18024	-736.30157	33.12077	478.51077	670.41968	34.97389	580.34363	-16.52330	692.73535	-1002.54376	
48	0.470	-805.07703	-19.79956	-658.72021	762.36255	-21.76031	-634.18536	-736.28314	33.15051	478.49860	670.41077	35.02107	580.35895	-16.51744	692.81036	-1002.55035	
49	0.480	-805.01758	-19.75763	-658.74896	762.37921	-21.72573	-634.19653	-736.21985	33.18847	478.52441	670.57880	34.91745	580.44904	-16.51172	692.81134	-1002.55701	
50	0.490	-805.06244	-19.75996	-658.73480	762.32672	-21.71918	-634.19690	-736.27258	33.15679	478.52646	670.44739	35.01931	580.35455	-16.52865	692.88354	-1002.58319	
51	0.500	-805.11865	-19.76460	-658.72980	762.17615	-21.94935	-634.21527	-736.29327	33.15203	478.53094	670.46399	35.00645	580.34528	-16.53778	692.88556	-1002.56744	
52	0.510	-805.13824	-19.76656	-658.70190	762.34631	-21.75924	-634.15033	-736.31189	33.09670	478.54419	670.48120	35.00644	580.32361	-16.56361	692.86188	-1002.56012	
53	0.520	-805.14868	-19.77242	-658.69946	762.35303	-21.78371	-634.16681	-736.31854	33.10620	478.50772	670.42621	35.00324	580.37451	-16.54500	692.83698	-1002.52423	
54	0.530	-805.10529	-19.74543	-658.70203	762.33240	-21.75307	-634.19800	-736.29407	33.12168	478.51709	670.46216	34.91008	580.46136	-16.50019	692.86401	-1002.46704	
55	0.540	-805.08588	-19.75574	-658.74426	762.38977	-21.74169	-634.18304	-736.24481	33.19938	478.52060	670.54413	34.91887	580.40759	-16.54291	692.82477	-1002.45770	
56	0.550	-805.07330	-19.77901	-658.75427	762.34009	-21.74251	-634.17499	-736.25671	33.18119	478.53448	670.50256	34.89191	580.44171	-16.52892	692.84723	-1002.49567	
57	0.560	-805.14069	-19.79759	-658.74347	762.33923	-21.78947	-634.17413	-736.29987	33.15315	478.53342	670.53735	34.92123	580.46747	-16.57281	692.80951	-1002.51678	
58	0.570	-805.08051	-19.83745	-658.78308	762.34576	-21.79959	-634.18396	-736.30737	33.09050	478.50473	670.50146	34.90747	580.45667	-16.53490	692.82227	-1002.52118	
59	0.580	-805.11176	-19.75953	-658.71191	762.34619	-21.75809	-634.20862	-736.32874	33.11822	478.50815	670.47577	35.04107	580.35260	-16.53521	692.85999	-1002.51691	
60	0.590	-805.07800	-19.70596	-658.73010	762.22290	-21.96065	-634.20520	-736.26453	33.15622	478.53210	670.46716	35.01424	580.37195	-16.50056	692.85229	-1002.51630	
61	0.600	-805.04773	-19.72964	-658.73364	762.36993	-21.71860	-634.18835	-736.24280	33.14983	478.53201	670.45966	35.01285	580.34338	-16.52735	692.92255	-1002.54559	
62	0.610	-805.14209	-19.74743	-658.72498	762.37164	-21.74803	-634.16345	-736.24792	33.20456	478.50723	670.45520	34.98540	580.33655	-16.57150	692.81287	-1002.50763	
63	0.620	-805.17352	-19.78215	-658.71429	762.33990	-21.74843	-634.17633	-736.29950	33.12577	478.53125	670.45813	34.98947	580.36212	-16.59590	692.85736	-1002.58203	
64	0.630	-805.14465	-19.79636	-658.73541	762.35040	-21.77047	-634.19519	-736.31116	33.09601	478.51227	670.49066	35.01525	580.34100	-16.54569	692.80206	-1002.58075	
65	0.640	-804.86096	-19.85966	-658.88916	762.35809	-21.74564	-634.19305	-736.28125	33.17595	478.50763	670.38416	34.82874	580.47437	-16.50992	692.84546	-1002.54358	
66	0.650	-805.09888	-19.71871	-658.69312	762.36377	-21.74454	-634.19427	-736.27667	33.20372	478.51419	670.47626	34.86612	580.43201	-16.46252	692.84540	-1002.53821	
67	0.660	-805.06604	-19.77097	-658.74323	762.18768	-21.96298	-634.19727	-736.25006	33.19132	478.52066	670.56097	34.89144	580.43097	-16.51018	692.84003	-1002.51337	
